<svg version="1.1" id="Layer_1" xmlns="http://www.w3.org/2000/svg" xmlns:xlink="http://www.w3.org/1999/xlink" x="0px" y="0px"
	 width="100%" viewBox="0 0 401 320" enable-background="new 0 0 401 320" xml:space="preserve">
<path fill="#0C8644" opacity="1.000000" stroke="none" 
	d="
M401.000000,321.000000 
	C267.718109,321.000000 134.436203,321.000000 1.077152,321.000000 
	C1.077152,214.425964 1.077152,107.851860 1.077152,1.000000 
	C134.022522,1.000000 267.045227,1.000000 400.535278,1.467852 
	C401.001770,108.290466 401.000885,214.645233 401.000000,321.000000 
M93.517937,101.365631 
	C90.019539,101.370872 86.516838,101.486557 83.023964,101.350266 
	C79.542564,101.214424 79.010490,102.794785 80.152382,105.766891 
	C82.780746,106.070793 85.417244,106.275108 88.018578,106.696518 
	C94.167183,107.692604 96.786598,110.570656 96.800987,116.812225 
	C96.867088,145.473679 96.889740,174.135513 96.801750,202.796829 
	C96.778725,210.296371 92.966866,214.627151 85.470009,215.573700 
	C81.034142,216.133774 76.490753,216.030716 72.001434,215.940689 
	C62.033825,215.740845 57.887104,211.397141 57.880093,201.331161 
	C57.862446,176.002319 57.873066,150.673447 57.871964,125.344597 
	C57.871231,108.496582 58.348831,107.939377 74.887527,105.630486 
	C75.913658,102.856506 75.456497,101.326813 71.961418,101.344696 
	C56.131355,101.425735 40.300480,101.418877 24.470287,101.351677 
	C20.866472,101.336380 20.076971,102.733345 21.528702,105.930840 
	C22.487825,105.989304 23.311102,106.066475 24.135731,106.085648 
	C34.748413,106.332428 38.060349,109.714424 38.063309,120.369576 
	C38.070900,147.698074 38.068947,175.026581 38.068798,202.355072 
	C38.068745,212.399200 34.901909,215.775177 24.706835,215.911865 
	C20.756691,215.964828 20.103779,217.447052 21.362049,220.669388 
	C58.717968,220.669388 95.940529,220.669388 133.285370,220.669388 
	C133.285370,219.155930 133.324173,218.015289 133.254486,216.881317 
	C133.239532,216.637756 132.832382,216.418304 132.508072,216.088165 
	C131.774826,216.056000 130.947662,215.999084 130.119843,215.986542 
	C120.302933,215.837769 116.735779,212.192581 116.711052,202.231155 
	C116.692436,194.732529 116.704559,187.233826 116.703339,179.735153 
	C116.702843,176.668243 116.703255,173.601334 116.703255,170.384323 
	C124.748734,170.202240 131.069153,172.590088 136.319778,177.254715 
	C151.748810,190.961807 166.975586,204.896423 182.376465,218.635559 
	C183.722351,219.836212 185.759750,220.925766 187.483810,220.937759 
	C209.645493,221.091843 231.808823,220.989639 253.971146,221.086807 
	C258.047028,221.104660 258.428558,219.411530 257.041321,215.976303 
	C255.131424,215.976303 253.309875,216.041016 251.494263,215.964676 
	C244.962616,215.690002 240.522537,211.442825 240.409348,204.870514 
	C240.231491,194.541992 240.425034,184.207458 240.304123,173.877304 
	C240.265335,170.565308 241.784500,169.384888 244.563675,170.614700 
	C250.876465,173.408157 257.939636,175.461487 263.088837,179.748276 
	C278.040222,192.195465 292.170441,205.626877 306.716736,218.566513 
	C308.072845,219.772858 310.090729,220.919006 311.809235,220.930649 
	C334.137451,221.081741 356.467102,221.026230 378.796356,220.996307 
	C379.418213,220.995468 380.039642,220.700653 380.981781,220.461609 
	C380.831024,218.948914 380.693268,217.566650 380.535248,215.980865 
	C378.283112,215.980865 376.459625,216.023300 374.638672,215.973282 
	C367.867035,215.787308 363.276550,211.452347 363.255341,204.678619 
	C363.164459,175.684036 363.162262,146.688843 363.255615,117.694267 
	C363.275970,111.368927 367.314575,107.190445 373.667603,106.337090 
	C375.932617,106.032852 378.230499,105.973587 380.677917,105.790176 
	C380.677917,104.249474 380.677917,103.009720 380.677917,101.504372 
	C362.674652,101.504372 344.934662,101.504372 326.752625,101.504372 
	C326.839569,103.154480 326.911346,104.516441 326.984863,105.911636 
	C328.107056,105.990715 328.765533,106.058105 329.425507,106.080498 
	C340.566376,106.458382 343.655914,109.593941 343.658020,120.569687 
	C343.663452,148.731369 343.671539,176.893051 343.657776,205.054733 
	C343.652954,214.970932 339.449829,217.739594 330.450714,213.728485 
	C328.789459,212.988007 327.099304,212.106720 325.743713,210.922653 
	C320.734741,206.547485 315.784760,202.098099 310.953033,197.528152 
	C303.453461,190.434891 296.187164,183.090546 288.566467,176.132523 
	C286.155212,173.930969 282.927399,172.623749 279.210449,170.388367 
	C283.090088,169.811295 285.722931,169.439117 288.349274,169.025665 
	C299.320923,167.298401 308.921478,163.372299 314.307465,152.741653 
	C324.277618,133.063095 315.022461,110.510902 294.089813,103.942177 
	C289.844208,102.609909 285.304657,101.573044 280.889404,101.529251 
	C256.396362,101.286301 231.899704,101.431107 207.404694,101.337097 
	C203.653564,101.322701 203.184845,102.844482 204.441727,105.909431 
	C205.226486,105.975861 205.876190,106.060539 206.527939,106.081619 
	C217.888885,106.449196 221.006226,109.632393 221.010117,120.924088 
	C221.016663,139.920731 221.013458,158.917374 221.010178,177.914017 
	C221.008606,187.078979 221.168304,196.248199 220.940262,205.407654 
	C220.732590,213.749481 214.557541,217.700668 206.936417,214.397125 
	C204.254959,213.234756 201.675461,211.486893 199.534653,209.486954 
	C189.197891,199.830322 179.104706,189.912720 168.756104,180.269073 
	C164.890854,176.667099 160.566681,173.557617 156.412231,170.191544 
	C160.494583,169.482376 164.442963,168.908875 168.342194,168.098923 
	C182.279236,165.203949 191.184158,156.703598 193.061676,144.626785 
	C195.540543,128.681717 189.496399,114.187355 177.485565,107.344124 
	C169.269394,102.662910 160.286026,101.367958 151.001144,101.375336 
	C132.171265,101.390289 113.341347,101.372620 93.517937,101.365631 
z"/>
<path fill="#A3D1B8" opacity="1.000000" stroke="none" 
	d="
M401.500000,321.000000 
	C401.000885,214.645233 401.001770,108.290466 401.001343,1.467849 
	C401.333344,2.499995 401.957550,3.999833 401.958374,5.500018 
	C402.005157,89.666664 402.000000,173.833328 402.000000,258.000000 
	C402.000000,279.000000 402.000000,300.000000 401.500000,321.000000 
z"/>
<path fill="#F8FBF9" opacity="1.000000" stroke="none" 
	d="
M94.014694,101.367012 
	C113.341347,101.372620 132.171265,101.390289 151.001144,101.375336 
	C160.286026,101.367958 169.269394,102.662910 177.485565,107.344124 
	C189.496399,114.187355 195.540543,128.681717 193.061676,144.626785 
	C191.184158,156.703598 182.279236,165.203949 168.342194,168.098923 
	C164.442963,168.908875 160.494583,169.482376 156.412231,170.191544 
	C160.566681,173.557617 164.890854,176.667099 168.756104,180.269073 
	C179.104706,189.912720 189.197891,199.830322 199.534653,209.486954 
	C201.675461,211.486893 204.254959,213.234756 206.936417,214.397125 
	C214.557541,217.700668 220.732590,213.749481 220.940262,205.407654 
	C221.168304,196.248199 221.008606,187.078979 221.010178,177.914017 
	C221.013458,158.917374 221.016663,139.920731 221.010117,120.924088 
	C221.006226,109.632393 217.888885,106.449196 206.527939,106.081619 
	C205.876190,106.060539 205.226486,105.975861 204.441727,105.909431 
	C203.184845,102.844482 203.653564,101.322701 207.404694,101.337097 
	C231.899704,101.431107 256.396362,101.286301 280.889404,101.529251 
	C285.304657,101.573044 289.844208,102.609909 294.089813,103.942177 
	C315.022461,110.510902 324.277618,133.063095 314.307465,152.741653 
	C308.921478,163.372299 299.320923,167.298401 288.349274,169.025665 
	C285.722931,169.439117 283.090088,169.811295 279.210449,170.388367 
	C282.927399,172.623749 286.155212,173.930969 288.566467,176.132523 
	C296.187164,183.090546 303.453461,190.434891 310.953033,197.528152 
	C315.784760,202.098099 320.734741,206.547485 325.743713,210.922653 
	C327.099304,212.106720 328.789459,212.988007 330.450714,213.728485 
	C339.449829,217.739594 343.652954,214.970932 343.657776,205.054733 
	C343.671539,176.893051 343.663452,148.731369 343.658020,120.569687 
	C343.655914,109.593941 340.566376,106.458382 329.425507,106.080498 
	C328.765533,106.058105 328.107056,105.990715 326.984863,105.911636 
	C326.911346,104.516441 326.839569,103.154480 326.752625,101.504372 
	C344.934662,101.504372 362.674652,101.504372 380.677917,101.504372 
	C380.677917,103.009720 380.677917,104.249474 380.677917,105.790176 
	C378.230499,105.973587 375.932617,106.032852 373.667603,106.337090 
	C367.314575,107.190445 363.275970,111.368927 363.255615,117.694267 
	C363.162262,146.688843 363.164459,175.684036 363.255341,204.678619 
	C363.276550,211.452347 367.867035,215.787308 374.638672,215.973282 
	C376.459625,216.023300 378.283112,215.980865 380.535248,215.980865 
	C380.693268,217.566650 380.831024,218.948914 380.981781,220.461609 
	C380.039642,220.700653 379.418213,220.995468 378.796356,220.996307 
	C356.467102,221.026230 334.137451,221.081741 311.809235,220.930649 
	C310.090729,220.919006 308.072845,219.772858 306.716736,218.566513 
	C292.170441,205.626877 278.040222,192.195465 263.088837,179.748276 
	C257.939636,175.461487 250.876465,173.408157 244.563675,170.614700 
	C241.784500,169.384888 240.265335,170.565308 240.304123,173.877304 
	C240.425034,184.207458 240.231491,194.541992 240.409348,204.870514 
	C240.522537,211.442825 244.962616,215.690002 251.494263,215.964676 
	C253.309875,216.041016 255.131424,215.976303 257.041321,215.976303 
	C258.428558,219.411530 258.047028,221.104660 253.971146,221.086807 
	C231.808823,220.989639 209.645493,221.091843 187.483810,220.937759 
	C185.759750,220.925766 183.722351,219.836212 182.376465,218.635559 
	C166.975586,204.896423 151.748810,190.961807 136.319778,177.254715 
	C131.069153,172.590088 124.748734,170.202240 116.703255,170.384323 
	C116.703255,173.601334 116.702843,176.668243 116.703339,179.735153 
	C116.704559,187.233826 116.692436,194.732529 116.711052,202.231155 
	C116.735779,212.192581 120.302933,215.837769 130.119843,215.986542 
	C130.947662,215.999084 131.774826,216.056000 132.508072,216.088165 
	C132.832382,216.418304 133.239532,216.637756 133.254486,216.881317 
	C133.324173,218.015289 133.285370,219.155930 133.285370,220.669388 
	C95.940529,220.669388 58.717968,220.669388 21.362049,220.669388 
	C20.103779,217.447052 20.756691,215.964828 24.706835,215.911865 
	C34.901909,215.775177 38.068745,212.399200 38.068798,202.355072 
	C38.068947,175.026581 38.070900,147.698074 38.063309,120.369576 
	C38.060349,109.714424 34.748413,106.332428 24.135731,106.085648 
	C23.311102,106.066475 22.487825,105.989304 21.528702,105.930840 
	C20.076971,102.733345 20.866472,101.336380 24.470287,101.351677 
	C40.300480,101.418877 56.131355,101.425735 71.961418,101.344696 
	C75.456497,101.326813 75.913658,102.856506 74.887527,105.630486 
	C58.348831,107.939377 57.871231,108.496582 57.871964,125.344597 
	C57.873066,150.673447 57.862446,176.002319 57.880093,201.331161 
	C57.887104,211.397141 62.033825,215.740845 72.001434,215.940689 
	C76.490753,216.030716 81.034142,216.133774 85.470009,215.573700 
	C92.966866,214.627151 96.778725,210.296371 96.801750,202.796829 
	C96.889740,174.135513 96.867088,145.473679 96.800987,116.812225 
	C96.786598,110.570656 94.167183,107.692604 88.018578,106.696518 
	C85.417244,106.275108 82.780746,106.070793 80.152382,105.766891 
	C79.010490,102.794785 79.542564,101.214424 83.023964,101.350266 
	C86.516838,101.486557 90.019539,101.370872 94.014694,101.367012 
M243.401917,116.095711 
	C242.469345,118.385582 240.781143,120.658890 240.730545,122.968094 
	C240.461899,135.225922 240.604233,147.492737 240.604233,159.671219 
	C252.972305,159.671219 265.134918,160.536880 277.107788,159.401596 
	C286.964752,158.466965 291.018677,152.857269 291.922394,142.895309 
	C292.281342,138.937897 292.253601,134.911575 292.013672,130.940079 
	C291.328430,119.597549 284.863831,111.701141 273.625122,108.134453 
	C263.149994,104.810097 250.209213,108.014214 243.401917,116.095711 
M167.174225,124.736794 
	C162.901031,107.987190 138.520630,100.813324 122.903816,112.764771 
	C120.238907,114.804207 117.543259,118.659210 117.389671,121.799126 
	C116.767044,134.527191 117.131012,147.303528 117.131012,159.893906 
	C128.990128,159.893906 140.652023,160.496475 152.219437,159.709671 
	C162.074570,159.039352 167.198349,153.309616 167.926804,143.441849 
	C168.363968,137.520020 167.618912,131.510895 167.174225,124.736794 
z"/>
<path fill="#0F8846" opacity="1.000000" stroke="none" 
	d="
M243.629364,115.800377 
	C250.209213,108.014214 263.149994,104.810097 273.625122,108.134453 
	C284.863831,111.701141 291.328430,119.597549 292.013672,130.940079 
	C292.253601,134.911575 292.281342,138.937897 291.922394,142.895309 
	C291.018677,152.857269 286.964752,158.466965 277.107788,159.401596 
	C265.134918,160.536880 252.972305,159.671219 240.604233,159.671219 
	C240.604233,147.492737 240.461899,135.225922 240.730545,122.968094 
	C240.781143,120.658890 242.469345,118.385582 243.629364,115.800377 
z"/>
<path fill="#0E8745" opacity="1.000000" stroke="none" 
	d="
M167.289703,125.138901 
	C167.618912,131.510895 168.363968,137.520020 167.926804,143.441849 
	C167.198349,153.309616 162.074570,159.039352 152.219437,159.709671 
	C140.652023,160.496475 128.990128,159.893906 117.131012,159.893906 
	C117.131012,147.303528 116.767044,134.527191 117.389671,121.799126 
	C117.543259,118.659210 120.238907,114.804207 122.903816,112.764771 
	C138.520630,100.813324 162.901031,107.987190 167.289703,125.138901 
z"/>
</svg>